<svg xmlns="http://www.w3.org/2000/svg" xmlns:xlink="http://www.w3.org/1999/xlink" width="200" zoomAndPan="magnify" viewBox="0 0 150 149.999998" height="200" preserveAspectRatio="xMidYMid meet" version="1.0"><defs><g/></defs><rect x="-15" width="180" fill="#ffffff" y="-15" height="179.999997" fill-opacity="1"/><rect x="-15" width="180" fill="#000000" y="-15" height="179.999997" fill-opacity="1"/><g fill="#ffffff" fill-opacity="1"><g transform="translate(15.656182, 80.505612)"><g><path d="M 21.5 -29.125 L 28.234375 -29.125 L 28.234375 0 L 21.5 0 L 21.5 -2 C 19.675781 -0.1875 17.109375 0.71875 13.796875 0.71875 C 11.359375 0.71875 9.210938 0.238281 7.359375 -0.71875 C 5.503906 -1.6875 4.050781 -3.03125 3 -4.75 C 1.957031 -6.476562 1.4375 -8.453125 1.4375 -10.671875 C 1.4375 -12.941406 1.960938 -14.925781 3.015625 -16.625 C 4.078125 -18.320312 5.546875 -19.644531 7.421875 -20.59375 C 9.296875 -21.539062 11.460938 -22.015625 13.921875 -22.015625 C 15.628906 -22.015625 17.109375 -21.773438 18.359375 -21.296875 C 19.617188 -20.816406 20.664062 -20.125 21.5 -19.21875 Z M 21.5 -10.671875 C 21.5 -12.546875 20.921875 -14.039062 19.765625 -15.15625 C 18.617188 -16.28125 17.070312 -16.84375 15.125 -16.84375 C 13.164062 -16.84375 11.613281 -16.28125 10.46875 -15.15625 C 9.320312 -14.039062 8.75 -12.53125 8.75 -10.625 C 8.75 -8.726562 9.328125 -7.222656 10.484375 -6.109375 C 11.648438 -5.003906 13.195312 -4.453125 15.125 -4.453125 C 17.070312 -4.453125 18.617188 -5.019531 19.765625 -6.15625 C 20.921875 -7.289062 21.5 -8.796875 21.5 -10.671875 Z M 21.5 -10.671875 "/></g></g></g><g fill="#ffffff" fill-opacity="1"><g transform="translate(45.737321, 80.505612)"><g><path d="M 27.234375 -7.0625 C 26.328125 -4.601562 24.78125 -2.679688 22.59375 -1.296875 C 20.414062 0.078125 17.722656 0.765625 14.515625 0.765625 C 11.847656 0.765625 9.53125 0.289062 7.5625 -0.65625 C 5.59375 -1.601562 4.078125 -2.945312 3.015625 -4.6875 C 1.960938 -6.425781 1.4375 -8.488281 1.4375 -10.875 C 1.4375 -13.25 1.957031 -15.296875 3 -17.015625 C 4.050781 -18.742188 5.554688 -20.082031 7.515625 -21.03125 C 9.484375 -21.988281 11.816406 -22.46875 14.515625 -22.46875 C 18.710938 -22.46875 21.941406 -21.390625 24.203125 -19.234375 C 26.460938 -17.078125 27.59375 -14.007812 27.59375 -10.03125 L 27.59375 -9.109375 L 9.03125 -9.109375 C 9.03125 -7.523438 9.539062 -6.257812 10.5625 -5.3125 C 11.59375 -4.363281 12.910156 -3.890625 14.515625 -3.890625 C 15.796875 -3.890625 16.898438 -4.171875 17.828125 -4.734375 C 18.753906 -5.296875 19.414062 -6.070312 19.8125 -7.0625 Z M 9.21875 -13.59375 L 20.140625 -13.59375 C 20.023438 -14.9375 19.476562 -16 18.5 -16.78125 C 17.53125 -17.570312 16.257812 -17.96875 14.6875 -17.96875 C 13.132812 -17.96875 11.867188 -17.570312 10.890625 -16.78125 C 9.910156 -16 9.351562 -14.9375 9.21875 -13.59375 Z M 9.21875 -13.59375 "/></g></g></g><g fill="#ffffff" fill-opacity="1"><g transform="translate(73.893261, 80.505612)"><g><path d="M 9.46875 -21.703125 L 9.46875 -19.578125 C 10.320312 -20.453125 11.382812 -21.148438 12.65625 -21.671875 C 13.925781 -22.203125 15.429688 -22.46875 17.171875 -22.46875 C 19.597656 -22.46875 21.738281 -21.972656 23.59375 -20.984375 C 25.457031 -19.992188 26.910156 -18.617188 27.953125 -16.859375 C 28.992188 -15.109375 29.515625 -13.113281 29.515625 -10.875 C 29.515625 -8.59375 28.988281 -6.578125 27.9375 -4.828125 C 26.882812 -3.078125 25.421875 -1.707031 23.546875 -0.71875 C 21.671875 0.269531 19.503906 0.765625 17.046875 0.765625 C 15.441406 0.765625 14.007812 0.503906 12.75 -0.015625 C 11.5 -0.535156 10.40625 -1.28125 9.46875 -2.25 L 9.46875 7.65625 L 2.734375 7.65625 L 2.734375 -21.703125 Z M 15.890625 -17.28125 C 13.929688 -17.28125 12.367188 -16.675781 11.203125 -15.46875 C 10.046875 -14.269531 9.46875 -12.722656 9.46875 -10.828125 C 9.46875 -8.953125 10.039062 -7.410156 11.1875 -6.203125 C 12.34375 -5.003906 13.894531 -4.40625 15.84375 -4.40625 C 17.789062 -4.40625 19.335938 -5.003906 20.484375 -6.203125 C 21.640625 -7.410156 22.21875 -8.96875 22.21875 -10.875 C 22.21875 -12.769531 21.640625 -14.3125 20.484375 -15.5 C 19.335938 -16.6875 17.804688 -17.28125 15.890625 -17.28125 Z M 15.890625 -17.28125 "/></g></g></g><g fill="#ffffff" fill-opacity="1"><g transform="translate(103.974399, 80.505612)"><g><path d="M 1.4375 -10.875 C 1.4375 -13.25 1.984375 -15.296875 3.078125 -17.015625 C 4.179688 -18.742188 5.757812 -20.082031 7.8125 -21.03125 C 9.875 -21.988281 12.335938 -22.46875 15.203125 -22.46875 C 18.085938 -22.46875 20.550781 -21.988281 22.59375 -21.03125 C 24.644531 -20.082031 26.210938 -18.742188 27.296875 -17.015625 C 28.378906 -15.296875 28.921875 -13.25 28.921875 -10.875 C 28.921875 -8.488281 28.367188 -6.425781 27.265625 -4.6875 C 26.171875 -2.945312 24.601562 -1.601562 22.5625 -0.65625 C 20.519531 0.289062 18.066406 0.765625 15.203125 0.765625 C 12.367188 0.765625 9.921875 0.289062 7.859375 -0.65625 C 5.796875 -1.601562 4.207031 -2.945312 3.09375 -4.6875 C 1.988281 -6.425781 1.4375 -8.488281 1.4375 -10.875 Z M 8.75 -10.828125 C 8.75 -8.929688 9.335938 -7.382812 10.515625 -6.1875 C 11.691406 -5 13.253906 -4.40625 15.203125 -4.40625 C 17.128906 -4.40625 18.679688 -5.003906 19.859375 -6.203125 C 21.035156 -7.410156 21.625 -8.96875 21.625 -10.875 C 21.625 -12.769531 21.035156 -14.3125 19.859375 -15.5 C 18.679688 -16.6875 17.128906 -17.28125 15.203125 -17.28125 C 13.253906 -17.28125 11.691406 -16.675781 10.515625 -15.46875 C 9.335938 -14.269531 8.75 -12.722656 8.75 -10.828125 Z M 8.75 -10.828125 "/></g></g></g></svg>